<svg width="48" height="54" viewBox="0 0 48 54" fill="none" xmlns="http://www.w3.org/2000/svg">
<circle cx="31" cy="37" r="17" fill="white"/>
<path fill-rule="evenodd" clip-rule="evenodd" d="M35.9509 11.5575C36.5378 11.3906 37.1079 11.1892 37.6582 10.9557C39.2804 13.8552 40.2051 17.1979 40.2051 20.7565C40.2051 31.8589 31.2049 40.8591 20.1026 40.8591C9.00022 40.8591 0 31.8589 0 20.7565C0 10.3432 7.91775 1.77919 18.0614 0.756302C18.1136 1.26009 18.1985 1.75523 18.3141 2.23994C18.0796 2.08814 17.8001 2 17.5 2C16.6716 2 16 2.67157 16 3.5C16 4.1666 16.4348 4.73164 17.0363 4.92696C17.1466 5.56772 17.5007 6.12507 17.9998 6.5C17.3927 6.95612 17 7.6822 17 8.5C17 9.88071 18.1193 11 19.5 11C20.8807 11 22 9.88071 22 8.5C22 8.46744 21.9994 8.43503 21.9981 8.40277C22.429 8.79844 22.8885 9.1682 23.3737 9.50928C23.1411 9.77352 23 10.1203 23 10.5C23 11.3284 23.6716 12 24.5 12C24.7312 12 24.9502 11.9477 25.1457 11.8543C25.0523 12.0499 25 12.2688 25 12.5C25 13.3284 25.6716 14 26.5 14C26.8082 14 27.0948 13.907 27.3331 13.7476C27.765 14.4962 28.5737 15 29.5 15C30.8807 15 32 13.8807 32 12.5C32 12.3734 31.9906 12.249 31.9724 12.1275C31.9829 12.1274 31.9935 12.1272 32.004 12.1271C32.0695 13.1725 32.9381 14 34 14C35.1046 14 36 13.1046 36 12C36 11.8479 35.983 11.6999 35.9509 11.5575ZM26.1746 11.0354C26.0626 11.0602 25.9553 11.0975 25.8543 11.1457C25.8865 11.0783 25.9138 11.0081 25.9358 10.9356C26.015 10.9695 26.0946 11.0028 26.1746 11.0354Z" fill="white"/>
<path d="M11.748 26.542L8.948 26.318L8.5 30.056L6.96 30.126L6.302 20.9L12.476 20.704L12.434 21.642L9.48 21.992L9.074 25.31L11.678 25.282L11.748 26.542ZM12.7618 30L15.3798 20.69L18.7678 20.9L20.5878 30L19.3278 30.21L18.3618 27.886L14.6378 28.194L14.1618 30.21L12.7618 30ZM15.9958 22.454L14.8898 27.116L18.0538 27.144L16.1078 22.454H15.9958ZM21.9692 23.84C21.9692 22.524 22.6692 21.3107 24.0692 20.2L26.6312 21.908C25.4739 22.636 24.8952 23.406 24.8952 24.218C24.8952 24.5633 25.0119 24.9273 25.2452 25.31C25.4785 25.6927 25.7119 26.0707 25.9452 26.444C26.1879 26.8173 26.3092 27.1673 26.3092 27.494C26.3092 28.8473 25.3759 29.8927 23.5092 30.63L22.8372 29.72C23.2945 29.468 23.6119 29.2253 23.7892 28.992C23.9665 28.7587 24.0552 28.502 24.0552 28.222C24.0552 27.942 23.9432 27.6293 23.7192 27.284C23.5045 26.9293 23.2665 26.6073 23.0052 26.318C22.7532 26.0287 22.5152 25.66 22.2912 25.212C22.0765 24.764 21.9692 24.3067 21.9692 23.84ZM27.8725 20.886L35.0265 20.69L34.9845 21.628L33.0245 21.824L32.1565 30.056L30.6165 30.196L29.9165 22.132L27.9565 22.328L27.8725 20.886Z" fill="#D91A2A"/>
<path d="M23.82 39.53L21.82 39.37L21.5 42.04L20.4 42.09L19.93 35.5L24.34 35.36L24.31 36.03L22.2 36.28L21.91 38.65L23.77 38.63L23.82 39.53ZM30.1322 39.93C30.1322 40.3367 30.0989 40.6767 30.0322 40.95C29.9655 41.2167 29.8455 41.4533 29.6722 41.66C29.3389 42.0467 28.6922 42.24 27.7322 42.24C26.7789 42.24 26.0389 42.0233 25.5122 41.59C25.3989 41.03 25.3422 40.4767 25.3422 39.93C25.3422 38.8233 25.5489 37.8333 25.9622 36.96C26.3822 36.0867 26.8689 35.4667 27.4222 35.1C28.2022 35.42 28.8489 36.02 29.3622 36.9C29.8755 37.7733 30.1322 38.7833 30.1322 39.93ZM28.9222 39.48C28.9222 38.4533 28.7522 37.5733 28.4122 36.84C27.7655 37.4333 27.2589 38.12 26.8922 38.9C26.5322 39.68 26.3522 40.4467 26.3522 41.2C26.5789 41.2467 26.8489 41.27 27.1622 41.27C27.7755 41.27 28.3022 41.1933 28.7422 41.04C28.8622 40.52 28.9222 40 28.9222 39.48ZM36.0209 39.93C36.0209 40.3367 35.9875 40.6767 35.9209 40.95C35.8542 41.2167 35.7342 41.4533 35.5609 41.66C35.2275 42.0467 34.5809 42.24 33.6209 42.24C32.6675 42.24 31.9275 42.0233 31.4009 41.59C31.2875 41.03 31.2309 40.4767 31.2309 39.93C31.2309 38.8233 31.4375 37.8333 31.8509 36.96C32.2709 36.0867 32.7575 35.4667 33.3109 35.1C34.0909 35.42 34.7375 36.02 35.2509 36.9C35.7642 37.7733 36.0209 38.7833 36.0209 39.93ZM34.8109 39.48C34.8109 38.4533 34.6409 37.5733 34.3009 36.84C33.6542 37.4333 33.1475 38.12 32.7809 38.9C32.4209 39.68 32.2409 40.4467 32.2409 41.2C32.4675 41.2467 32.7375 41.27 33.0509 41.27C33.6642 41.27 34.1909 41.1933 34.6309 41.04C34.7509 40.52 34.8109 40 34.8109 39.48ZM37.4995 35.7C38.4795 35.3867 39.4062 35.23 40.2795 35.23C41.1595 35.23 41.8762 35.3633 42.4295 35.63C42.6495 36.17 42.7595 36.7333 42.7595 37.32C42.7595 38.1133 42.5662 38.87 42.1795 39.59C41.7995 40.31 41.2429 40.91 40.5095 41.39C39.7829 41.8633 38.9695 42.1133 38.0695 42.14L37.4995 35.7ZM40.9795 38C40.9795 37.5133 40.9062 37.08 40.7595 36.7C40.6195 36.32 40.4162 36.0533 40.1495 35.9C40.0295 35.9 39.8829 35.9233 39.7095 35.97L39.1595 41.3C39.7595 41.0533 40.2129 40.6233 40.5195 40.01C40.8262 39.39 40.9795 38.72 40.9795 38Z" fill="#D91A2A"/>
</svg>
